<svg width="22" height="24" viewBox="0 0 22 24" fill="none" xmlns="http://www.w3.org/2000/svg">
<path fill-rule="evenodd" clip-rule="evenodd" d="M2.13567 17.2092C2.0975 17.2099 2.05984 17.218 2.02482 17.2332C1.9898 17.2484 1.95812 17.2703 1.93158 17.2978C1.90504 17.3252 1.88417 17.3576 1.87015 17.3931C1.85614 17.4286 1.84926 17.4665 1.8499 17.5047C1.83953 18.1667 2.0923 18.8058 2.55272 19.2817C3.01313 19.7576 3.64356 20.0313 4.30559 20.0427H6.5966C6.83581 20.0487 7.0703 20.1105 7.28138 20.2232C7.49246 20.3359 7.67429 20.4963 7.81234 20.6918L10.0549 23.7045C10.1465 23.7992 10.2564 23.8743 10.378 23.9251C10.4996 23.9759 10.6303 24.0014 10.7621 23.9999C11.0095 24.0029 11.2487 23.911 11.4305 23.7432L14.017 20.624C14.1611 20.4502 14.3417 20.3102 14.5459 20.2139C14.7501 20.1177 14.973 20.0675 15.1988 20.0669H17.5043C18.1664 20.0555 18.7968 19.7818 19.2572 19.3059C19.7176 18.8301 19.9704 18.191 19.96 17.5289C19.9607 17.4907 19.9538 17.4528 19.9398 17.4173C19.9258 17.3818 19.9049 17.3494 19.8784 17.322C19.8518 17.2945 19.8201 17.2726 19.7851 17.2574C19.7501 17.2422 19.7124 17.2341 19.6743 17.2335L2.13567 17.2092ZM18.1195 11.5519C17.6544 11.5607 17.2072 11.7321 16.8553 12.0363L14.884 13.6734C14.8202 13.7249 14.7407 13.753 14.6587 13.753C14.5768 13.753 14.4973 13.7249 14.4335 13.6734L12.4622 12.0363C12.1118 11.7328 11.6663 11.5615 11.2028 11.5519H1.67069C1.2197 11.5756 0.794999 11.7714 0.484147 12.099C0.173295 12.4266 0 12.861 0 13.3126C0 13.7642 0.173295 14.1986 0.484147 14.5262C0.794999 14.8537 1.2197 15.0496 1.67069 15.0732H20.1974C20.6496 15.0495 21.0755 14.8532 21.3873 14.5247C21.699 14.1962 21.8728 13.7606 21.8728 13.3077C21.8728 12.8549 21.699 12.4193 21.3873 12.0908C21.0755 11.7623 20.6496 11.5659 20.1974 11.5422L18.1195 11.5519ZM6.60629 6.70836C6.61105 6.56579 6.65767 6.42777 6.74033 6.31152C6.823 6.19527 6.93806 6.10593 7.07117 6.05464C7.20427 6.00334 7.34953 5.99236 7.48883 6.02307C7.62814 6.05378 7.75531 6.12482 7.85451 6.22733C7.95371 6.32983 8.02055 6.45927 8.04667 6.59951C8.0728 6.73974 8.05707 6.88456 8.00143 7.01592C7.9458 7.14727 7.85274 7.25934 7.73384 7.33815C7.61494 7.41696 7.47548 7.45903 7.33283 7.45911C7.23612 7.45537 7.1411 7.4326 7.05321 7.3921C6.96531 7.3516 6.88626 7.29416 6.82058 7.22309C6.7549 7.15201 6.70387 7.06868 6.67043 6.97786C6.63698 6.88704 6.62178 6.79053 6.62567 6.69383L6.60629 6.70836ZM4.09732 6.224C4.10113 6.08119 4.14696 5.94268 4.22907 5.82577C4.31118 5.70887 4.42594 5.61877 4.55898 5.56674C4.69203 5.51471 4.83746 5.50305 4.9771 5.53324C5.11673 5.56342 5.24437 5.6341 5.34405 5.73644C5.44373 5.83877 5.51103 5.96823 5.53753 6.10861C5.56402 6.24899 5.54855 6.39407 5.49304 6.5257C5.43752 6.65733 5.34443 6.76968 5.22541 6.84869C5.10639 6.9277 4.96672 6.96986 4.82386 6.96991C4.7263 6.96619 4.63045 6.94311 4.54189 6.902C4.45333 6.8609 4.37384 6.80259 4.30803 6.73047C4.24222 6.65835 4.19141 6.57386 4.15857 6.48192C4.12572 6.38998 4.11149 6.29243 4.11669 6.19494L4.09732 6.224ZM5.87976 4.13157C5.88451 3.989 5.93113 3.85099 6.0138 3.73474C6.09647 3.61849 6.21152 3.52915 6.34463 3.47786C6.47773 3.42656 6.62299 3.41558 6.7623 3.44629C6.9016 3.477 7.02878 3.54803 7.12798 3.65054C7.22718 3.75305 7.29401 3.88249 7.32014 4.02272C7.34626 4.16296 7.33053 4.30778 7.2749 4.43913C7.21927 4.57048 7.1262 4.68255 7.0073 4.76136C6.8884 4.84018 6.74894 4.88225 6.60629 4.88233C6.5083 4.87863 6.41203 4.8554 6.32314 4.81399C6.23425 4.77258 6.15453 4.71383 6.08865 4.64119C6.02278 4.56855 5.97209 4.48347 5.93954 4.39097C5.90699 4.29847 5.89326 4.2004 5.89913 4.10251L5.87976 4.13157ZM10.9268 0.0290603C8.58169 0.0562642 6.31652 0.885021 4.50759 2.37763C2.69866 3.87024 1.45488 5.93684 0.982898 8.23408C0.948018 8.38111 0.946657 8.5341 0.978915 8.68172C1.01117 8.82934 1.07622 8.96781 1.16925 9.08688C1.26227 9.20596 1.38089 9.30258 1.51632 9.36959C1.65175 9.43661 1.80052 9.47231 1.95161 9.47404H19.9213C20.0732 9.4734 20.223 9.43824 20.3594 9.37123C20.4957 9.30421 20.615 9.20709 20.7083 9.08719C20.8016 8.9673 20.8665 8.82776 20.8979 8.67913C20.9294 8.5305 20.9267 8.37667 20.89 8.22924C20.4237 5.92713 19.1823 3.85446 17.3727 2.35691C15.5631 0.859371 13.2948 0.0274848 10.9461 0L10.9268 0.0290603Z" fill="#FF864E"/>
</svg>
